<svg width="1097" height="400" viewBox="0 0 1097 400" fill="none" xmlns="http://www.w3.org/2000/svg">
<path d="M418.666 211.984C409.564 211.984 400.38 209.278 395.296 205.342L399.806 195.338C404.644 198.864 411.86 201.324 418.748 201.324C426.62 201.324 429.818 198.7 429.818 195.174C429.818 184.432 396.444 191.812 396.444 170.492C396.444 160.734 404.316 152.616 420.634 152.616C427.85 152.616 435.23 154.338 440.56 157.7L436.46 167.786C431.13 164.752 425.636 163.276 420.552 163.276C412.68 163.276 409.646 166.228 409.646 169.836C409.646 180.414 443.02 173.116 443.02 194.19C443.02 203.784 435.066 211.984 418.666 211.984ZM507.693 166.228C518.189 166.228 525.733 172.296 525.733 185.744V211H512.941V187.712C512.941 180.578 509.743 177.298 504.577 177.298C498.837 177.298 494.819 180.988 494.819 188.86V211H482.027V187.712C482.027 180.578 478.993 177.298 473.663 177.298C468.005 177.298 463.987 180.988 463.987 188.86V211H451.195V166.884H463.413V171.968C466.693 168.196 471.613 166.228 477.271 166.228C483.421 166.228 488.669 168.606 491.785 173.444C495.311 168.934 501.051 166.228 507.693 166.228ZM554.993 166.228C568.441 166.228 576.231 172.46 576.231 185.826V211H564.259V205.506C561.881 209.524 557.289 211.656 550.811 211.656C540.479 211.656 534.329 205.916 534.329 198.29C534.329 190.5 539.823 185.088 553.271 185.088H563.439C563.439 179.594 560.159 176.396 553.271 176.396C548.597 176.396 543.759 177.954 540.561 180.496L535.969 171.558C540.807 168.114 547.941 166.228 554.993 166.228ZM554.009 203.046C558.273 203.046 561.963 201.078 563.439 197.06V192.55H554.665C548.679 192.55 546.793 194.764 546.793 197.716C546.793 200.914 549.499 203.046 554.009 203.046ZM600.026 172.706C603.142 168.442 608.39 166.228 615.196 166.228V178.036C614.13 177.954 613.31 177.872 612.326 177.872C605.274 177.872 600.6 181.726 600.6 190.172V211H587.808V166.884H600.026V172.706ZM649.334 199.848L652.778 208.868C650.154 210.754 646.3 211.656 642.364 211.656C631.95 211.656 625.882 206.326 625.882 195.83V177.708H619.076V167.868H625.882V157.126H638.674V167.868H649.662V177.708H638.674V195.666C638.674 199.438 640.724 201.488 644.168 201.488C646.054 201.488 647.94 200.914 649.334 199.848ZM679.721 211.984C670.619 211.984 661.435 209.278 656.351 205.342L660.861 195.338C665.699 198.864 672.915 201.324 679.803 201.324C687.675 201.324 690.873 198.7 690.873 195.174C690.873 184.432 657.499 191.812 657.499 170.492C657.499 160.734 665.371 152.616 681.689 152.616C688.905 152.616 696.285 154.338 701.615 157.7L697.515 167.786C692.185 164.752 686.691 163.276 681.607 163.276C673.735 163.276 670.701 166.228 670.701 169.836C670.701 180.414 704.075 173.116 704.075 194.19C704.075 203.784 696.121 211.984 679.721 211.984ZM743.902 166.884H756.694V211H744.558V205.752C741.196 209.606 736.276 211.656 730.864 211.656C719.794 211.656 712.004 205.424 712.004 191.812V166.884H724.796V189.926C724.796 197.306 728.076 200.586 733.734 200.586C739.638 200.586 743.902 196.814 743.902 188.696V166.884ZM794.621 166.228C807.003 166.228 816.597 175.084 816.597 188.942C816.597 202.8 807.003 211.656 794.621 211.656C788.717 211.656 783.961 209.77 780.763 205.916V211H768.545V150.156H781.337V171.558C784.617 167.95 789.127 166.228 794.621 166.228ZM792.407 201.16C798.803 201.16 803.641 196.568 803.641 188.942C803.641 181.316 798.803 176.724 792.407 176.724C786.011 176.724 781.173 181.316 781.173 188.942C781.173 196.568 786.011 201.16 792.407 201.16ZM840.002 211.656C832.54 211.656 824.996 209.606 820.896 206.9L825.16 197.716C829.096 200.258 835.082 201.98 840.494 201.98C846.398 201.98 848.612 200.422 848.612 197.962C848.612 190.746 821.962 198.126 821.962 180.496C821.962 172.132 829.506 166.228 842.38 166.228C848.448 166.228 855.172 167.622 859.354 170.082L855.09 179.184C850.744 176.724 846.398 175.904 842.38 175.904C836.64 175.904 834.18 177.708 834.18 180.004C834.18 187.548 860.83 180.25 860.83 197.634C860.83 205.834 853.204 211.656 840.002 211.656Z" fill="white"/>
<path d="M871.51 211.41C869.132 211.41 867.164 209.442 867.164 206.9C867.164 204.358 869.132 202.472 871.51 202.472C873.888 202.472 875.938 204.358 875.938 206.9C875.938 209.442 873.888 211.41 871.51 211.41ZM910.535 167.54C922.835 167.54 932.019 176.396 932.019 189.434C932.019 202.554 922.835 211.41 910.535 211.41C903.647 211.41 897.743 208.458 894.135 202.882V226.908H888.313V167.868H893.889V176.396C897.415 170.656 903.401 167.54 910.535 167.54ZM910.125 206.244C919.227 206.244 926.197 199.52 926.197 189.434C926.197 179.43 919.227 172.624 910.125 172.624C900.941 172.624 894.053 179.43 894.053 189.434C894.053 199.52 900.941 206.244 910.125 206.244ZM949.464 176.314C952.17 170.574 957.664 167.54 965.618 167.54V173.198C965.126 173.198 964.634 173.116 964.224 173.116C955.204 173.116 949.71 178.856 949.71 189.024V211H943.888V167.868H949.464V176.314ZM993.389 211.41C980.761 211.41 971.413 202.226 971.413 189.434C971.413 176.642 980.761 167.54 993.389 167.54C1006.02 167.54 1015.28 176.642 1015.28 189.434C1015.28 202.226 1006.02 211.41 993.389 211.41ZM993.389 206.244C1002.57 206.244 1009.38 199.52 1009.38 189.434C1009.38 179.348 1002.57 172.624 993.389 172.624C984.205 172.624 977.317 179.348 977.317 189.434C977.317 199.52 984.205 206.244 993.389 206.244Z" fill="#F97316"/>
<path d="M400.824 259.52H395.96L395.064 262H393.528L397.56 250.912H399.24L403.256 262H401.72L400.824 259.52ZM400.408 258.336L398.392 252.704L396.376 258.336H400.408ZM406.469 250.848V262H405.013V250.848H406.469ZM412.672 256.416C412.672 255.328 412.918 254.352 413.408 253.488C413.899 252.613 414.566 251.931 415.408 251.44C416.262 250.949 417.206 250.704 418.24 250.704C419.456 250.704 420.518 250.997 421.424 251.584C422.331 252.171 422.992 253.003 423.408 254.08H421.664C421.355 253.408 420.907 252.891 420.32 252.528C419.744 252.165 419.051 251.984 418.24 251.984C417.462 251.984 416.763 252.165 416.144 252.528C415.526 252.891 415.04 253.408 414.688 254.08C414.336 254.741 414.16 255.52 414.16 256.416C414.16 257.301 414.336 258.08 414.688 258.752C415.04 259.413 415.526 259.925 416.144 260.288C416.763 260.651 417.462 260.832 418.24 260.832C419.051 260.832 419.744 260.656 420.32 260.304C420.907 259.941 421.355 259.424 421.664 258.752H423.408C422.992 259.819 422.331 260.645 421.424 261.232C420.518 261.808 419.456 262.096 418.24 262.096C417.206 262.096 416.262 261.856 415.408 261.376C414.566 260.885 413.899 260.208 413.408 259.344C412.918 258.48 412.672 257.504 412.672 256.416ZM425.032 257.584C425.032 256.688 425.213 255.904 425.576 255.232C425.938 254.549 426.434 254.021 427.064 253.648C427.704 253.275 428.413 253.088 429.192 253.088C429.96 253.088 430.626 253.253 431.192 253.584C431.757 253.915 432.178 254.331 432.456 254.832V253.232H433.928V262H432.456V260.368C432.168 260.88 431.736 261.307 431.16 261.648C430.594 261.979 429.933 262.144 429.176 262.144C428.397 262.144 427.693 261.952 427.064 261.568C426.434 261.184 425.938 260.645 425.576 259.952C425.213 259.259 425.032 258.469 425.032 257.584ZM432.456 257.6C432.456 256.939 432.322 256.363 432.056 255.872C431.789 255.381 431.426 255.008 430.968 254.752C430.52 254.485 430.024 254.352 429.48 254.352C428.936 254.352 428.44 254.48 427.992 254.736C427.544 254.992 427.186 255.365 426.92 255.856C426.653 256.347 426.52 256.923 426.52 257.584C426.52 258.256 426.653 258.843 426.92 259.344C427.186 259.835 427.544 260.213 427.992 260.48C428.44 260.736 428.936 260.864 429.48 260.864C430.024 260.864 430.52 260.736 430.968 260.48C431.426 260.213 431.789 259.835 432.056 259.344C432.322 258.843 432.456 258.261 432.456 257.6ZM437.844 254.848C438.132 254.347 438.559 253.931 439.124 253.6C439.7 253.259 440.367 253.088 441.124 253.088C441.903 253.088 442.607 253.275 443.236 253.648C443.876 254.021 444.378 254.549 444.74 255.232C445.103 255.904 445.284 256.688 445.284 257.584C445.284 258.469 445.103 259.259 444.74 259.952C444.378 260.645 443.876 261.184 443.236 261.568C442.607 261.952 441.903 262.144 441.124 262.144C440.378 262.144 439.716 261.979 439.14 261.648C438.575 261.307 438.143 260.885 437.844 260.384V266.16H436.388V253.232H437.844V254.848ZM443.796 257.584C443.796 256.923 443.663 256.347 443.396 255.856C443.13 255.365 442.767 254.992 442.308 254.736C441.86 254.48 441.364 254.352 440.82 254.352C440.287 254.352 439.791 254.485 439.332 254.752C438.884 255.008 438.522 255.387 438.244 255.888C437.978 256.379 437.844 256.949 437.844 257.6C437.844 258.261 437.978 258.843 438.244 259.344C438.522 259.835 438.884 260.213 439.332 260.48C439.791 260.736 440.287 260.864 440.82 260.864C441.364 260.864 441.86 260.736 442.308 260.48C442.767 260.213 443.13 259.835 443.396 259.344C443.663 258.843 443.796 258.256 443.796 257.584ZM448.977 254.432V259.6C448.977 260.027 449.067 260.331 449.249 260.512C449.43 260.683 449.745 260.768 450.193 260.768H451.265V262H449.953C449.142 262 448.534 261.813 448.129 261.44C447.723 261.067 447.521 260.453 447.521 259.6V254.432H446.385V253.232H447.521V251.024H448.977V253.232H451.265V254.432H448.977ZM453.781 251.808C453.504 251.808 453.269 251.712 453.077 251.52C452.885 251.328 452.789 251.093 452.789 250.816C452.789 250.539 452.885 250.304 453.077 250.112C453.269 249.92 453.504 249.824 453.781 249.824C454.048 249.824 454.272 249.92 454.453 250.112C454.645 250.304 454.741 250.539 454.741 250.816C454.741 251.093 454.645 251.328 454.453 251.52C454.272 251.712 454.048 251.808 453.781 251.808ZM454.485 253.232V262H453.029V253.232H454.485ZM460.79 262.144C459.969 262.144 459.222 261.957 458.55 261.584C457.889 261.211 457.366 260.683 456.982 260C456.609 259.307 456.422 258.507 456.422 257.6C456.422 256.704 456.614 255.915 456.998 255.232C457.393 254.539 457.926 254.011 458.598 253.648C459.27 253.275 460.022 253.088 460.854 253.088C461.686 253.088 462.438 253.275 463.11 253.648C463.782 254.011 464.31 254.533 464.694 255.216C465.089 255.899 465.286 256.693 465.286 257.6C465.286 258.507 465.084 259.307 464.678 260C464.284 260.683 463.745 261.211 463.062 261.584C462.38 261.957 461.622 262.144 460.79 262.144ZM460.79 260.864C461.313 260.864 461.804 260.741 462.262 260.496C462.721 260.251 463.089 259.883 463.366 259.392C463.654 258.901 463.798 258.304 463.798 257.6C463.798 256.896 463.66 256.299 463.382 255.808C463.105 255.317 462.742 254.955 462.294 254.72C461.846 254.475 461.361 254.352 460.838 254.352C460.305 254.352 459.814 254.475 459.366 254.72C458.929 254.955 458.577 255.317 458.31 255.808C458.044 256.299 457.91 256.896 457.91 257.6C457.91 258.315 458.038 258.917 458.294 259.408C458.561 259.899 458.913 260.267 459.35 260.512C459.788 260.747 460.268 260.864 460.79 260.864ZM471.473 253.072C472.539 253.072 473.403 253.397 474.065 254.048C474.726 254.688 475.057 255.616 475.057 256.832V262H473.617V257.04C473.617 256.165 473.398 255.499 472.961 255.04C472.523 254.571 471.926 254.336 471.169 254.336C470.401 254.336 469.787 254.576 469.329 255.056C468.881 255.536 468.657 256.235 468.657 257.152V262H467.201V253.232H468.657V254.48C468.945 254.032 469.334 253.685 469.825 253.44C470.326 253.195 470.875 253.072 471.473 253.072ZM478.187 251.808C477.91 251.808 477.675 251.712 477.483 251.52C477.291 251.328 477.195 251.093 477.195 250.816C477.195 250.539 477.291 250.304 477.483 250.112C477.675 249.92 477.91 249.824 478.187 249.824C478.454 249.824 478.678 249.92 478.859 250.112C479.051 250.304 479.147 250.539 479.147 250.816C479.147 251.093 479.051 251.328 478.859 251.52C478.678 251.712 478.454 251.808 478.187 251.808ZM478.891 253.232V262H477.435V253.232H478.891ZM485.645 253.072C486.711 253.072 487.575 253.397 488.237 254.048C488.898 254.688 489.229 255.616 489.229 256.832V262H487.789V257.04C487.789 256.165 487.57 255.499 487.133 255.04C486.695 254.571 486.098 254.336 485.341 254.336C484.573 254.336 483.959 254.576 483.501 255.056C483.053 255.536 482.829 256.235 482.829 257.152V262H481.373V253.232H482.829V254.48C483.117 254.032 483.506 253.685 483.997 253.44C484.498 253.195 485.047 253.072 485.645 253.072ZM495.223 253.088C495.98 253.088 496.642 253.253 497.207 253.584C497.783 253.915 498.21 254.331 498.487 254.832V253.232H499.959V262.192C499.959 262.992 499.788 263.701 499.447 264.32C499.106 264.949 498.615 265.44 497.975 265.792C497.346 266.144 496.61 266.32 495.767 266.32C494.615 266.32 493.655 266.048 492.887 265.504C492.119 264.96 491.666 264.219 491.527 263.28H492.967C493.127 263.813 493.458 264.24 493.959 264.56C494.46 264.891 495.063 265.056 495.767 265.056C496.567 265.056 497.218 264.805 497.719 264.304C498.231 263.803 498.487 263.099 498.487 262.192V260.352C498.199 260.864 497.772 261.291 497.207 261.632C496.642 261.973 495.98 262.144 495.223 262.144C494.444 262.144 493.735 261.952 493.095 261.568C492.466 261.184 491.97 260.645 491.607 259.952C491.244 259.259 491.063 258.469 491.063 257.584C491.063 256.688 491.244 255.904 491.607 255.232C491.97 254.549 492.466 254.021 493.095 253.648C493.735 253.275 494.444 253.088 495.223 253.088ZM498.487 257.6C498.487 256.939 498.354 256.363 498.087 255.872C497.82 255.381 497.458 255.008 496.999 254.752C496.551 254.485 496.055 254.352 495.511 254.352C494.967 254.352 494.471 254.48 494.023 254.736C493.575 254.992 493.218 255.365 492.951 255.856C492.684 256.347 492.551 256.923 492.551 257.584C492.551 258.256 492.684 258.843 492.951 259.344C493.218 259.835 493.575 260.213 494.023 260.48C494.471 260.736 494.967 260.864 495.511 260.864C496.055 260.864 496.551 260.736 496.999 260.48C497.458 260.213 497.82 259.835 498.087 259.344C498.354 258.843 498.487 258.261 498.487 257.6ZM514.141 254.112C514.141 255.04 513.821 255.813 513.181 256.432C512.552 257.04 511.586 257.344 510.285 257.344H508.141V262H506.685V250.848H510.285C511.544 250.848 512.498 251.152 513.149 251.76C513.81 252.368 514.141 253.152 514.141 254.112ZM510.285 256.144C511.096 256.144 511.693 255.968 512.077 255.616C512.461 255.264 512.653 254.763 512.653 254.112C512.653 252.736 511.864 252.048 510.285 252.048H508.141V256.144H510.285ZM517.407 250.16V262H515.951V250.16H517.407ZM527.664 253.232V262H526.208V260.704C525.931 261.152 525.542 261.504 525.04 261.76C524.55 262.005 524.006 262.128 523.408 262.128C522.726 262.128 522.112 261.989 521.568 261.712C521.024 261.424 520.592 260.997 520.272 260.432C519.963 259.867 519.808 259.179 519.808 258.368V253.232H521.248V258.176C521.248 259.04 521.467 259.707 521.904 260.176C522.342 260.635 522.939 260.864 523.696 260.864C524.475 260.864 525.088 260.624 525.536 260.144C525.984 259.664 526.208 258.965 526.208 258.048V253.232H527.664ZM533.739 253.088C534.496 253.088 535.157 253.253 535.723 253.584C536.299 253.915 536.725 254.331 537.003 254.832V253.232H538.475V262.192C538.475 262.992 538.304 263.701 537.963 264.32C537.621 264.949 537.131 265.44 536.491 265.792C535.861 266.144 535.125 266.32 534.283 266.32C533.131 266.32 532.171 266.048 531.403 265.504C530.635 264.96 530.181 264.219 530.043 263.28H531.483C531.643 263.813 531.973 264.24 532.475 264.56C532.976 264.891 533.579 265.056 534.283 265.056C535.083 265.056 535.733 264.805 536.235 264.304C536.747 263.803 537.003 263.099 537.003 262.192V260.352C536.715 260.864 536.288 261.291 535.723 261.632C535.157 261.973 534.496 262.144 533.739 262.144C532.96 262.144 532.251 261.952 531.611 261.568C530.981 261.184 530.485 260.645 530.123 259.952C529.76 259.259 529.579 258.469 529.579 257.584C529.579 256.688 529.76 255.904 530.123 255.232C530.485 254.549 530.981 254.021 531.611 253.648C532.251 253.275 532.96 253.088 533.739 253.088ZM537.003 257.6C537.003 256.939 536.869 256.363 536.603 255.872C536.336 255.381 535.973 255.008 535.515 254.752C535.067 254.485 534.571 254.352 534.027 254.352C533.483 254.352 532.987 254.48 532.539 254.736C532.091 254.992 531.733 255.365 531.467 255.856C531.2 256.347 531.067 256.923 531.067 257.584C531.067 258.256 531.2 258.843 531.467 259.344C531.733 259.835 532.091 260.213 532.539 260.48C532.987 260.736 533.483 260.864 534.027 260.864C534.571 260.864 535.067 260.736 535.515 260.48C535.973 260.213 536.336 259.835 536.603 259.344C536.869 258.843 537.003 258.261 537.003 257.6ZM541.687 251.808C541.41 251.808 541.175 251.712 540.983 251.52C540.791 251.328 540.695 251.093 540.695 250.816C540.695 250.539 540.791 250.304 540.983 250.112C541.175 249.92 541.41 249.824 541.687 249.824C541.954 249.824 542.178 249.92 542.359 250.112C542.551 250.304 542.647 250.539 542.647 250.816C542.647 251.093 542.551 251.328 542.359 251.52C542.178 251.712 541.954 251.808 541.687 251.808ZM542.391 253.232V262H540.935V253.232H542.391ZM549.145 253.072C550.211 253.072 551.075 253.397 551.737 254.048C552.398 254.688 552.729 255.616 552.729 256.832V262H551.289V257.04C551.289 256.165 551.07 255.499 550.633 255.04C550.195 254.571 549.598 254.336 548.841 254.336C548.073 254.336 547.459 254.576 547.001 255.056C546.553 255.536 546.329 256.235 546.329 257.152V262H544.873V253.232H546.329V254.48C546.617 254.032 547.006 253.685 547.497 253.44C547.998 253.195 548.547 253.072 549.145 253.072Z" fill="#83C566"/>
<path d="M289.5 75H164.5C129.982 75 102 102.982 102 137.5V262.5C102 297.018 129.982 325 164.5 325H289.5C324.018 325 352 297.018 352 262.5V137.5C352 102.982 324.018 75 289.5 75Z" fill="#1E1E24" stroke="#6D26D9" stroke-width="6"/>
<path d="M189.01 205.07C189.01 198.837 183.412 193.784 176.506 193.784C169.6 193.784 164.001 198.837 164.001 205.07V245.2C164.001 251.433 169.6 256.486 176.506 256.486C183.412 256.486 189.01 251.433 189.01 245.2V205.07Z" fill="#6D26D9"/>
<path d="M239.027 167.449C239.027 161.215 233.428 156.162 226.522 156.162C219.616 156.162 214.018 161.215 214.018 167.449V282.822C214.018 289.055 219.616 294.108 226.522 294.108C233.428 294.108 239.027 289.055 239.027 282.822V167.449Z" fill="#F97316"/>
<path d="M226.788 94L233.735 112.811L254.576 115.319L237.904 125.351L240.682 144.162L226.788 131.622L212.894 144.162L215.673 125.351L199 115.319L219.841 112.811L226.788 94Z" fill="#F97316"/>
<path d="M289.048 186.259C289.048 180.026 283.45 174.973 276.544 174.973C269.638 174.973 264.039 180.026 264.039 186.259V264.011C264.039 270.244 269.638 275.297 276.544 275.297C283.45 275.297 289.048 270.244 289.048 264.011V186.259Z" fill="#6D26D9"/>
</svg>
