<svg width="250" height="250" viewBox="0 0 250 250" fill="none" xmlns="http://www.w3.org/2000/svg">
<path d="M169 37H81C56.6995 37 37 56.6995 37 81V169C37 193.301 56.6995 213 81 213H169C193.301 213 213 193.301 213 169V81C213 56.6995 193.301 37 169 37Z" fill="#1E1E24" stroke="#6D26D9" stroke-width="4.224"/>
<path d="M98.2551 128.569C98.2551 124.181 94.3137 120.624 89.4517 120.624C84.5898 120.624 80.6484 124.181 80.6484 128.569V156.821C80.6484 161.209 84.5898 164.766 89.4517 164.766C94.3137 164.766 98.2551 161.209 98.2551 156.821V128.569Z" fill="#6D26D9"/>
<path d="M133.467 102.084C133.467 97.6955 129.526 94.1381 124.664 94.1381C119.802 94.1381 115.86 97.6955 115.86 102.084V183.306C115.86 187.695 119.802 191.252 124.664 191.252C129.526 191.252 133.467 187.695 133.467 183.306V102.084Z" fill="#F97316"/>
<path d="M124.851 50.376L129.742 63.6188L144.414 65.3845L132.676 72.4473L134.632 85.6901L124.851 76.8616L115.07 85.6901L117.026 72.4473L105.288 65.3845L119.96 63.6188L124.851 50.376Z" fill="#F97316"/>
<path d="M168.682 115.327C168.682 110.938 164.74 107.381 159.879 107.381C155.017 107.381 151.075 110.938 151.075 115.327V170.064C151.075 174.452 155.017 178.009 159.879 178.009C164.74 178.009 168.682 174.452 168.682 170.064V115.327Z" fill="#6D26D9"/>
</svg>
